<svg width="24" height="24" viewBox="0 0 24 24" fill="none" xmlns="http://www.w3.org/2000/svg">
<path d="M21.5252 6.67498L15.9752 5.39998C15.9752 5.28748 16.0127 5.21248 16.0127 5.09998C16.0127 3.22498 14.5127 1.72498 12.6752 1.72498C10.8002 1.72498 9.30019 3.22498 9.30019 5.09998C9.30019 5.47498 9.41269 5.96248 9.6377 6.52498L8.55019 6.74998L3.6377 5.36248C2.9252 5.17498 2.1752 5.28748 1.5752 5.73748C0.975195 6.18748 0.637695 6.86248 0.637695 7.61248V18.3375C0.637695 19.3875 1.3502 20.325 2.3627 20.5875L8.28769 22.275C8.28769 22.275 8.2877 22.275 8.3252 22.275C8.4002 22.275 8.47519 22.3125 8.55019 22.3125C8.62519 22.3125 8.66269 22.3125 8.73769 22.3125L15.5627 20.8875L20.5127 22.05C20.7002 22.0875 20.8502 22.125 21.0377 22.125C21.5627 22.125 22.0877 21.9375 22.5002 21.6C23.0627 21.15 23.4002 20.475 23.4002 19.7625V8.96248C23.3627 7.87498 22.6127 6.93748 21.5252 6.67498ZM12.6377 3.41248C13.5752 3.41248 14.2877 4.16248 14.2877 5.09998C14.2877 5.51248 13.7627 6.74998 12.6002 8.54998C11.4377 6.74998 10.9127 5.54998 10.9127 5.09998C10.9502 4.16248 11.7002 3.41248 12.6377 3.41248ZM10.3502 8.06248C10.7627 8.81248 11.2502 9.56248 11.7002 10.2C11.8877 10.5 12.2627 10.6875 12.6002 10.6875C12.9752 10.6875 13.3127 10.5 13.5002 10.2C13.8752 9.63748 14.2877 9.03748 14.6627 8.39998V19.275L9.37519 20.4V8.28748L10.3502 8.06248ZM2.3627 18.3V7.61248C2.3627 7.38748 2.4752 7.19998 2.6252 7.08748C2.7752 6.97498 3.0002 6.93748 3.1877 6.97498L7.6877 8.24998V20.325L2.8127 18.9375C2.5502 18.8625 2.3627 18.6 2.3627 18.3ZM21.6752 19.6875C21.6752 19.95 21.5252 20.1375 21.4127 20.2125C21.3377 20.2875 21.1127 20.4 20.8502 20.325L16.3502 19.275V7.19998L21.1502 8.32498C21.4502 8.39998 21.6752 8.66248 21.6752 8.96248V19.6875Z" fill="white"/>
<path d="M12.7879 5.81245C12.8254 5.81245 12.9004 5.77495 12.9379 5.77495C12.9754 5.77495 13.0504 5.73745 13.0879 5.69995C13.1254 5.66245 13.1629 5.62495 13.2004 5.58745C13.3504 5.43745 13.4629 5.21245 13.4629 4.98745C13.4629 4.76245 13.3879 4.53745 13.2004 4.38745C13.1629 4.34995 13.1254 4.31245 13.0879 4.27495C13.0504 4.23745 12.9754 4.19995 12.9379 4.19995C12.9004 4.16245 12.8254 4.16245 12.7879 4.16245C12.5254 4.12495 12.2254 4.19995 12.0379 4.38745C11.8879 4.53745 11.7754 4.76245 11.7754 4.98745C11.7754 5.21245 11.8504 5.43745 12.0379 5.58745C12.1879 5.73745 12.4129 5.84995 12.6379 5.84995C12.6754 5.81245 12.7504 5.81245 12.7879 5.81245Z" fill="white"/>
</svg>
