<svg width="24" height="24" viewBox="0 0 24 24" fill="none" xmlns="http://www.w3.org/2000/svg">
<path d="M21.525 6.67498L15.975 5.39998C15.975 5.28748 16.0125 5.21248 16.0125 5.09998C16.0125 3.22498 14.5125 1.72498 12.675 1.72498C10.8 1.72498 9.29995 3.22498 9.29995 5.09998C9.29995 5.47498 9.41245 5.96248 9.63745 6.52498L8.54995 6.74998L3.63745 5.36248C2.92495 5.17498 2.17495 5.28748 1.57495 5.73748C0.974951 6.18748 0.637451 6.86248 0.637451 7.61248V18.3375C0.637451 19.3875 1.34995 20.325 2.36245 20.5875L8.28745 22.275C8.28745 22.275 8.28745 22.275 8.32495 22.275C8.39995 22.275 8.47495 22.3125 8.54995 22.3125C8.62495 22.3125 8.66245 22.3125 8.73745 22.3125L15.5625 20.8875L20.5125 22.05C20.7 22.0875 20.85 22.125 21.0375 22.125C21.5625 22.125 22.0875 21.9375 22.5 21.6C23.0625 21.15 23.4 20.475 23.4 19.7625V8.96248C23.3625 7.87498 22.6125 6.93748 21.525 6.67498ZM12.6375 3.41248C13.575 3.41248 14.2875 4.16248 14.2875 5.09998C14.2875 5.51248 13.7625 6.74998 12.6 8.54998C11.4375 6.74998 10.9125 5.54998 10.9125 5.09998C10.95 4.16248 11.7 3.41248 12.6375 3.41248ZM10.35 8.06248C10.7625 8.81248 11.25 9.56248 11.7 10.2C11.8875 10.5 12.2625 10.6875 12.6 10.6875C12.975 10.6875 13.3125 10.5 13.5 10.2C13.875 9.63748 14.2875 9.03748 14.6625 8.39998V19.275L9.37495 20.4V8.28748L10.35 8.06248ZM2.36245 18.3V7.61248C2.36245 7.38748 2.47495 7.19998 2.62495 7.08748C2.77495 6.97498 2.99995 6.93748 3.18745 6.97498L7.68745 8.24998V20.325L2.81245 18.9375C2.54995 18.8625 2.36245 18.6 2.36245 18.3ZM21.6749 19.6875C21.6749 19.95 21.525 20.1375 21.4125 20.2125C21.3375 20.2875 21.1124 20.4 20.85 20.325L16.35 19.275V7.19998L21.15 8.32498C21.45 8.39998 21.6749 8.66248 21.6749 8.96248V19.6875Z" fill="white"/>
<path d="M12.7874 5.81245C12.8249 5.81245 12.8999 5.77495 12.9374 5.77495C12.9749 5.77495 13.0499 5.73745 13.0874 5.69995C13.1249 5.66245 13.1624 5.62495 13.1999 5.58745C13.3499 5.43745 13.4624 5.21245 13.4624 4.98745C13.4624 4.76245 13.3874 4.53745 13.1999 4.38745C13.1624 4.34995 13.1249 4.31245 13.0874 4.27495C13.0499 4.23745 12.9749 4.19995 12.9374 4.19995C12.8999 4.16245 12.8249 4.16245 12.7874 4.16245C12.5249 4.12495 12.2249 4.19995 12.0374 4.38745C11.8874 4.53745 11.7749 4.76245 11.7749 4.98745C11.7749 5.21245 11.8499 5.43745 12.0374 5.58745C12.1874 5.73745 12.4124 5.84995 12.6374 5.84995C12.6749 5.81245 12.7499 5.81245 12.7874 5.81245Z" fill="white"/>
</svg>
