<svg width="24" height="24" viewBox="0 0 24 24" fill="none" xmlns="http://www.w3.org/2000/svg">
<path d="M21.5252 6.67501L15.9752 5.40001C15.9752 5.28751 16.0127 5.21251 16.0127 5.10001C16.0127 3.22501 14.5127 1.72501 12.6752 1.72501C10.8002 1.72501 9.30019 3.22501 9.30019 5.10001C9.30019 5.47501 9.41269 5.96251 9.6377 6.52501L8.55019 6.75001L3.6377 5.36251C2.9252 5.17501 2.1752 5.28751 1.5752 5.73751C0.975195 6.18751 0.637695 6.86251 0.637695 7.61251V18.3375C0.637695 19.3875 1.3502 20.325 2.3627 20.5875L8.28769 22.275C8.28769 22.275 8.2877 22.275 8.3252 22.275C8.4002 22.275 8.47519 22.3125 8.55019 22.3125C8.62519 22.3125 8.66269 22.3125 8.73769 22.3125L15.5627 20.8875L20.5127 22.05C20.7002 22.0875 20.8502 22.125 21.0377 22.125C21.5627 22.125 22.0877 21.9375 22.5002 21.6C23.0627 21.15 23.4002 20.475 23.4002 19.7625V8.96251C23.3627 7.87501 22.6127 6.93751 21.5252 6.67501ZM12.6377 3.41251C13.5752 3.41251 14.2877 4.16251 14.2877 5.10001C14.2877 5.51251 13.7627 6.75001 12.6002 8.55001C11.4377 6.75001 10.9127 5.55001 10.9127 5.10001C10.9502 4.16251 11.7002 3.41251 12.6377 3.41251ZM10.3502 8.06251C10.7627 8.81251 11.2502 9.56251 11.7002 10.2C11.8877 10.5 12.2627 10.6875 12.6002 10.6875C12.9752 10.6875 13.3127 10.5 13.5002 10.2C13.8752 9.63751 14.2877 9.03751 14.6627 8.40001V19.275L9.37519 20.4V8.28751L10.3502 8.06251ZM2.3627 18.3V7.61251C2.3627 7.38751 2.4752 7.20001 2.6252 7.08751C2.7752 6.97501 3.0002 6.93751 3.1877 6.97501L7.6877 8.25001V20.325L2.8127 18.9375C2.5502 18.8625 2.3627 18.6 2.3627 18.3ZM21.6752 19.6875C21.6752 19.95 21.5252 20.1375 21.4127 20.2125C21.3377 20.2875 21.1127 20.4 20.8502 20.325L16.3502 19.275V7.20001L21.1502 8.32501C21.4502 8.40001 21.6752 8.66251 21.6752 8.96251V19.6875Z" fill="white"/>
<path d="M12.7879 5.81251C12.8254 5.81251 12.9004 5.77501 12.9379 5.77501C12.9754 5.77501 13.0504 5.73751 13.0879 5.70001C13.1254 5.66251 13.1629 5.62501 13.2004 5.58751C13.3504 5.43751 13.4629 5.21251 13.4629 4.98751C13.4629 4.76251 13.3879 4.53751 13.2004 4.38751C13.1629 4.35001 13.1254 4.31251 13.0879 4.27501C13.0504 4.23751 12.9754 4.20001 12.9379 4.20001C12.9004 4.16251 12.8254 4.16251 12.7879 4.16251C12.5254 4.12501 12.2254 4.20001 12.0379 4.38751C11.8879 4.53751 11.7754 4.76251 11.7754 4.98751C11.7754 5.21251 11.8504 5.43751 12.0379 5.58751C12.1879 5.73751 12.4129 5.85001 12.6379 5.85001C12.6754 5.81251 12.7504 5.81251 12.7879 5.81251Z" fill="white"/>
</svg>
